HIERARCHY
ROOT Hips
{
	OFFSET 0.000000 35.082581 0.000000
	CHANNELS 6 Xposition Yposition Zposition Xrotation Yrotation Zrotation 
	JOINT Spine
	{
		OFFSET 0.000000 6.876099 0.125700
		CHANNELS 3 Xrotation Yrotation Zrotation
		JOINT Spine1
		{
			OFFSET 0.000000 5.730043 0.104720
			CHANNELS 3 Xrotation Yrotation Zrotation
			JOINT Spine1_split
			{
				OFFSET 0.000000 5.730043 0.104720
				CHANNELS 3 Xrotation Yrotation Zrotation
				JOINT Spine2
				{
					OFFSET 0.000000 5.730043 0.104720
					CHANNELS 3 Xrotation Yrotation Zrotation
					JOINT Neck
					{
						OFFSET 0.000000 10.314075 0.188496
						CHANNELS 3 Xrotation Yrotation Zrotation
						JOINT Head
						{
							OFFSET 0.000000 7.643700 -2.377400
							CHANNELS 3 Xrotation Yrotation Zrotation
							JOINT HeadTop_End
							{
								OFFSET 0.000000 43.788605 -13.619600
								CHANNELS 3 Xrotation Yrotation Zrotation
								End Site
								{
									OFFSET 0.000000 0.000000 0.000000
								}
							}
						}
					}
					JOINT LeftShoulder
					{
						OFFSET 2.196100 4.412489 0.087492
						CHANNELS 3 Xrotation Yrotation Zrotation
						JOINT LeftShoulder_split
						{
							OFFSET 2.196100 4.412489 0.087492
							CHANNELS 3 Xrotation Yrotation Zrotation
							JOINT LeftArm
							{
								OFFSET 8.771219 -2.981674 -0.026999
								CHANNELS 3 Xrotation Yrotation Zrotation
								JOINT LeftForeArm
								{
									OFFSET 8.512804 0.000000 -0.000000
									CHANNELS 3 Xrotation Yrotation Zrotation
									JOINT LeftHand
									{
										OFFSET 18.484802 0.000000 -0.000000
										CHANNELS 3 Xrotation Yrotation Zrotation
										JOINT LeftHandThumb1
										{
											OFFSET 2.499420 -1.158070 2.653252
											CHANNELS 3 Xrotation Yrotation Zrotation
											JOINT LeftHandThumb2
											{
												OFFSET 2.370079 -1.368366 1.368366
												CHANNELS 3 Xrotation Yrotation Zrotation
												JOINT LeftHandThumb3
												{
													OFFSET 2.676727 -1.545410 1.545409
													CHANNELS 3 Xrotation Yrotation Zrotation
													JOINT LeftHandThumb4
													{
														OFFSET 1.692226 -0.977005 0.977007
														CHANNELS 3 Xrotation Yrotation Zrotation
														End Site
														{
															OFFSET 0.000000 0.000000 0.000000
														}
													}
												}
											}
										}
										JOINT LeftHandIndex1
										{
											OFFSET 7.924831 -0.457527 2.345128
											CHANNELS 3 Xrotation Yrotation Zrotation
											JOINT LeftHandIndex2
											{
												OFFSET 3.643303 0.000000 0.000000
												CHANNELS 3 Xrotation Yrotation Zrotation
												JOINT LeftHandIndex3
												{
													OFFSET 3.810799 0.000000 0.000000
													CHANNELS 3 Xrotation Yrotation Zrotation
													JOINT LeftHandIndex4
													{
														OFFSET 2.403702 0.000000 0.000000
														CHANNELS 3 Xrotation Yrotation Zrotation
														End Site
														{
															OFFSET 0.000000 0.000000 0.000000
														}
													}
												}
											}
										}
										JOINT LeftHandMiddle1
										{
											OFFSET 8.563995 0.000000 -0.000000
											CHANNELS 3 Xrotation Yrotation Zrotation
											JOINT LeftHandMiddle2
											{
												OFFSET 3.861618 0.000000 0.000000
												CHANNELS 3 Xrotation Yrotation Zrotation
												JOINT LeftHandMiddle3
												{
													OFFSET 3.701603 0.000000 0.000000
													CHANNELS 3 Xrotation Yrotation Zrotation
													JOINT LeftHandMiddle4
													{
														OFFSET 2.322544 0.000000 0.000000
														CHANNELS 3 Xrotation Yrotation Zrotation
														End Site
														{
															OFFSET 0.000000 0.000000 0.000000
														}
													}
												}
											}
										}
										JOINT LeftHandRing1
										{
											OFFSET 8.426460 -0.424637 -3.286992
											CHANNELS 3 Xrotation Yrotation Zrotation
											JOINT LeftHandRing2
											{
												OFFSET 3.126408 0.000000 0.000000
												CHANNELS 3 Xrotation Yrotation Zrotation
												JOINT LeftHandRing3
												{
													OFFSET 3.085026 0.000000 0.000000
													CHANNELS 3 Xrotation Yrotation Zrotation
													JOINT LeftHandRing4
													{
														OFFSET 1.644005 0.000000 0.000000
														CHANNELS 3 Xrotation Yrotation Zrotation
														End Site
														{
															OFFSET 0.000000 0.000000 0.000000
														}
													}
												}
											}
										}
									}
								}
							}
						}
					}
					JOINT RightShoulder
					{
						OFFSET -2.196100 4.412496 0.070690
						CHANNELS 3 Xrotation Yrotation Zrotation
						JOINT RightShoulder_split
						{
							OFFSET -2.196100 4.412496 0.070690
							CHANNELS 3 Xrotation Yrotation Zrotation
							JOINT RightArm
							{
								OFFSET -8.771282 -2.981682 -0.094208
								CHANNELS 3 Xrotation Yrotation Zrotation
								JOINT RightForeArm
								{
									OFFSET -8.494598 0.000000 0.000000
									CHANNELS 3 Xrotation Yrotation Zrotation
									JOINT RightHand
									{
										OFFSET -18.483803 0.000000 0.000001
										CHANNELS 3 Xrotation Yrotation Zrotation
										JOINT RightHandThumb1
										{
											OFFSET -2.527351 -1.008072 2.575253
											CHANNELS 3 Xrotation Yrotation Zrotation
											JOINT RightHandThumb2
											{
												OFFSET -2.321518 -1.340328 1.340329
												CHANNELS 3 Xrotation Yrotation Zrotation
												JOINT RightHandThumb3
												{
													OFFSET -2.657753 -1.534454 1.534455
													CHANNELS 3 Xrotation Yrotation Zrotation
													JOINT RightHandThumb4
													{
														OFFSET -1.807510 -1.043568 1.043567
														CHANNELS 3 Xrotation Yrotation Zrotation
														End Site
														{
															OFFSET 0.000000 0.000000 0.000000
														}
													}
												}
											}
										}
										JOINT RightHandIndex1
										{
											OFFSET -8.811420 0.015533 2.887987
											CHANNELS 3 Xrotation Yrotation Zrotation
											JOINT RightHandIndex2
											{
												OFFSET -3.537502 0.000000 0.000000
												CHANNELS 3 Xrotation Yrotation Zrotation
												JOINT RightHandIndex3
												{
													OFFSET -3.356201 0.000000 0.000000
													CHANNELS 3 Xrotation Yrotation Zrotation
													JOINT RightHandIndex4
													{
														OFFSET -1.933098 0.000000 0.000000
														CHANNELS 3 Xrotation Yrotation Zrotation
														End Site
														{
															OFFSET 0.000000 0.000000 0.000000
														}
													}
												}
											}
										}
										JOINT RightHandMiddle1
										{
											OFFSET -8.178135 0.000000 0.000000
											CHANNELS 3 Xrotation Yrotation Zrotation
											JOINT RightHandMiddle2
											{
												OFFSET -3.901302 0.000000 0.000000
												CHANNELS 3 Xrotation Yrotation Zrotation
												JOINT RightHandMiddle3
												{
													OFFSET -3.909599 0.000000 0.000000
													CHANNELS 3 Xrotation Yrotation Zrotation
													JOINT RightHandMiddle4
													{
														OFFSET -2.376003 0.000000 0.000000
														CHANNELS 3 Xrotation Yrotation Zrotation
														End Site
														{
															OFFSET 0.000000 0.000000 0.000000
														}
													}
												}
											}
										}
										JOINT RightHandRing1
										{
											OFFSET -7.559013 0.014137 -2.865403
											CHANNELS 3 Xrotation Yrotation Zrotation
											JOINT RightHandRing2
											{
												OFFSET -3.449306 0.000000 0.000000
												CHANNELS 3 Xrotation Yrotation Zrotation
												JOINT RightHandRing3
												{
													OFFSET -3.362106 0.000000 0.000000
													CHANNELS 3 Xrotation Yrotation Zrotation
													JOINT RightHandRing4
													{
														OFFSET -2.076401 0.000000 0.000000
														CHANNELS 3 Xrotation Yrotation Zrotation
														End Site
														{
															OFFSET 0.000000 0.000000 0.000000
														}
													}
												}
											}
										}
									}
								}
							}
						}
					}
				}
			}
		}
	}
	JOINT LeftUpLeg
	{
		OFFSET 10.205400 -3.823500 0.155100
		CHANNELS 3 Xrotation Yrotation Zrotation
		JOINT LeftLeg
		{
			OFFSET 0.708757 -12.982077 0.567790
			CHANNELS 3 Xrotation Yrotation Zrotation
			JOINT LeftFoot
			{
				OFFSET -0.708756 -10.717838 -2.184338
				CHANNELS 3 Xrotation Yrotation Zrotation
				JOINT LeftToeBase
				{
					OFFSET 0.108149 -7.191104 7.560241
					CHANNELS 3 Xrotation Yrotation Zrotation
					JOINT LeftToe_End
					{
						OFFSET 0.070230 0.081724 4.490308
						CHANNELS 3 Xrotation Yrotation Zrotation
						End Site
						{
							OFFSET 0.000000 0.000000 0.000000
						}
					}
				}
			}
		}
	}
	JOINT RightUpLeg
	{
		OFFSET -10.205400 -3.823500 0.005500
		CHANNELS 3 Xrotation Yrotation Zrotation
		JOINT RightLeg
		{
			OFFSET -0.708756 -12.982134 0.610632
			CHANNELS 3 Xrotation Yrotation Zrotation
			JOINT RightFoot
			{
				OFFSET 0.708754 -10.717769 -1.945823
				CHANNELS 3 Xrotation Yrotation Zrotation
				JOINT RightToeBase
				{
					OFFSET -0.108140 -7.191069 7.372968
					CHANNELS 3 Xrotation Yrotation Zrotation
					JOINT RightToe_End
					{
						OFFSET -0.070227 0.081735 4.479403
						CHANNELS 3 Xrotation Yrotation Zrotation
						End Site
						{
							OFFSET 0.000000 0.000000 0.000000
						}
					}
				}
			}
		}
	}
}
MOTION
Frames: 5
Frame Time: 0.016667
-3.348119 33.112499 206.761993 178.442394 18.292785 -176.518425 -8.383738 8.452507 -2.069944 2.885765 0.867784 -2.840126 0.000000 0.000000 0.000000 2.918912 0.925578 -2.789145 -2.267352 -1.126767 -1.980808 5.163783 9.476486 4.286312 0.000000 -0.000000 -0.000000 2.179066 -9.179411 -8.048007 0.000000 0.000000 0.000000 14.406932 29.963982 -77.628597 0.000010 -34.684445 0.000011 14.422658 3.046592 -0.816627 -6.684713 7.621245 19.674607 12.443668 25.448701 -7.963743 5.136222 7.868246 -3.074650 -0.000002 -0.000002 -0.000004 -0.599932 -1.191961 -15.838719 0.763108 3.155591 -27.183111 0.349278 2.169164 -18.292228 -0.000001 0.000001 0.000004 -0.513527 -1.737472 -12.002754 0.474077 2.515169 -21.345291 0.506564 2.596687 -22.073848 0.000000 -0.000001 -0.000001 0.001052 0.779671 -12.836426 0.906750 3.420413 -29.687113 0.010824 0.386694 -3.206023 -0.000001 0.000000 0.000002 1.176347 8.510090 2.447349 0.000000 0.000000 0.000000 54.046641 33.855882 65.975700 0.000020 63.444049 0.000004 52.855535 43.637232 -78.072593 2.028303 4.773715 9.571618 4.642460 -8.639172 -0.222143 -7.858495 19.054597 -1.516456 -0.000002 0.000001 0.000003 8.333966 12.771171 -38.552641 0.273800 -1.935664 16.100460 0.241777 -1.821139 15.123582 -0.000001 0.000000 0.000001 3.496415 8.099782 -28.749345 0.565347 -2.751024 23.221800 2.245368 -0.071476 0.868656 -0.000002 0.000000 -0.000000 1.427749 5.041219 -20.610584 0.144910 -1.414977 11.694190 -0.548243 -0.393207 2.985504 0.000002 -0.000001 -0.000000 -13.366330 5.108647 -13.095278 28.631685 2.378430 0.419690 -16.534826 -1.052603 2.496356 0.157907 -0.000588 0.195715 0.000000 -0.000000 0.000000 8.700641 -15.129783 -9.400814 48.697097 -7.046050 -0.893212 8.513515 -9.570713 28.522354 -30.344789 -4.649417 14.002180 -0.000000 -0.000000 0.000000 
-3.256498 33.091690 206.464615 178.567865 17.668747 -176.441354 -8.201368 7.969608 -1.567850 2.875273 0.818130 -2.931603 0.000000 0.000000 0.000000 2.908802 0.873100 -2.883818 -2.130120 -0.781071 -2.167741 5.293200 11.076064 3.964217 -0.000000 0.000000 0.000000 2.350515 -9.842288 -8.206679 0.000000 0.000000 0.000000 12.252306 28.921312 -76.587164 0.000008 -33.323933 -0.000001 15.503478 3.149337 -1.500095 -6.700413 7.648486 20.154614 12.316239 25.187820 -7.880606 5.028904 7.619578 -3.015365 0.000000 -0.000001 -0.000002 -0.634960 -1.349618 -15.696736 0.763047 3.155497 -27.182230 0.348870 2.167937 -18.281514 -0.000001 0.000001 -0.000001 -0.502561 -1.793119 -11.613244 0.485390 2.543917 -21.601807 0.504160 2.590735 -22.020468 0.000001 0.000000 0.000002 -0.009628 0.728890 -12.781717 0.923270 3.449207 -29.963108 0.009976 0.371101 -3.076506 -0.000002 -0.000001 0.000000 1.147076 8.186072 2.395703 0.000000 0.000000 0.000000 53.514143 32.226103 67.039966 0.000004 64.113592 0.000000 51.483832 43.898391 -75.395760 1.630045 4.544536 9.876833 4.619473 -8.628190 -0.234491 -7.863832 19.056163 -1.516035 -0.000001 -0.000004 -0.000004 8.024278 12.463485 -38.292759 0.272167 -1.929971 16.051742 0.241644 -1.820672 15.119676 0.000004 0.000000 0.000001 3.286594 7.766338 -28.519704 0.563634 -2.746991 23.185642 2.029251 -0.074425 0.864586 -0.000002 0.000002 0.000001 1.292483 4.713895 -20.382823 0.143437 -1.407889 11.634684 -0.829179 -0.408309 2.986807 0.000000 0.000000 -0.000000 -12.605919 5.034509 -13.119331 28.672359 1.628061 0.187992 -17.096312 -1.066377 2.254505 0.156202 -0.000578 0.193874 0.000000 -0.000001 0.000000 4.791171 -14.620392 -11.416581 55.783289 -6.686190 -1.036147 8.082541 -8.328983 28.853612 -23.100692 -3.709204 15.849819 -0.000002 0.000001 -0.000001 
-3.153176 33.077309 206.148911 178.708607 17.193622 -176.366467 -7.801189 7.410513 -1.156810 2.875484 0.762739 -2.993523 0.000000 0.000000 0.000000 2.908381 0.813681 -2.949337 -2.055259 -0.454486 -2.308381 5.231539 12.641308 3.684728 -0.000000 -0.000000 0.000000 2.546446 -10.572190 -8.378380 0.000000 0.000000 0.000000 9.922139 27.756113 -75.392011 0.000006 -32.041910 -0.000008 16.831403 3.251066 -2.443232 -6.700561 7.737788 20.690863 12.203132 24.954400 -7.806903 4.916786 7.358029 -2.953355 -0.000003 -0.000003 -0.000000 -0.673820 -1.516351 -15.590019 0.762983 3.155363 -27.181160 0.348371 2.166405 -18.268029 -0.000002 0.000000 -0.000002 -0.478436 -1.803002 -11.152376 0.496702 2.572273 -21.855241 0.501620 2.584462 -21.964328 0.000001 0.000001 0.000002 -0.003903 0.744804 -12.628211 0.940821 3.479385 -30.253230 0.009068 0.354222 -2.936671 0.000000 -0.000000 -0.000000 1.128171 7.962229 2.448092 0.000000 0.000000 0.000000 52.967174 30.554954 67.976884 -0.000035 64.710838 0.000051 50.178593 44.006004 -72.730183 1.538520 4.517432 9.972491 4.594829 -8.615004 -0.248090 -7.869316 19.058007 -1.515679 -0.000000 -0.000002 -0.000002 7.968346 12.398188 -38.277784 0.271534 -1.927806 16.033113 0.241523 -1.820212 15.115817 -0.000001 0.000001 -0.000001 3.250980 7.703729 -28.510818 0.563248 -2.746079 23.177687 1.961793 -0.075315 0.863226 0.000001 0.000000 -0.000001 1.270409 4.657465 -20.365544 0.142504 -1.403327 11.596581 -0.912806 -0.413118 2.989273 0.000000 -0.000000 -0.000000 -11.711079 4.798557 -13.207337 28.525045 1.090622 0.051887 -17.640135 -1.037508 1.978011 0.192824 -0.000879 0.239397 0.000000 0.000000 -0.000001 0.350594 -13.528286 -13.209085 63.381157 -6.355694 -1.290128 8.281840 -7.331229 28.614345 -17.922613 -1.982399 11.453757 0.000004 -0.000001 0.000002 
-3.033423 33.069931 205.817841 178.930998 16.829695 -176.330308 -7.125087 6.756103 -0.846357 2.893130 0.698840 -3.014761 0.000000 0.000000 0.000000 2.924215 0.744275 -2.974639 -2.071822 -0.141754 -2.407374 4.963950 14.191079 3.450176 0.000000 -0.000000 -0.000000 2.756969 -11.327240 -8.553168 0.000000 0.000000 0.000000 7.462146 26.390234 -74.021724 0.000004 -30.901565 -0.000002 18.404095 3.328743 -3.716080 -6.679936 7.905280 21.241963 12.115510 24.772326 -7.749827 4.807616 7.101534 -2.892884 -0.000003 -0.000001 -0.000002 -0.715151 -1.681684 -15.537900 0.762906 3.155245 -27.179838 0.347757 2.164546 -18.251857 0.000000 -0.000000 -0.000000 -0.441822 -1.753594 -10.653329 0.508276 2.600904 -22.111585 0.498879 2.577671 -21.903460 0.000002 0.000000 0.000000 0.018851 0.833787 -12.381403 0.958588 3.509629 -30.544852 0.008200 0.336788 -2.791977 -0.000002 0.000001 0.000003 1.119234 7.836400 2.584072 0.000000 0.000000 0.000000 52.387346 28.918854 68.720657 0.000002 65.210405 0.000003 49.212770 43.993453 -70.307536 1.612551 4.590519 9.914299 4.591453 -8.611599 -0.250458 -7.869704 19.058470 -1.515834 -0.000000 0.000002 -0.000000 8.043907 12.469098 -38.358086 0.271726 -1.928499 16.039221 0.241517 -1.820178 15.115480 0.000000 0.000001 0.000000 3.304395 7.786619 -28.584697 0.563692 -2.747168 23.187247 1.990281 -0.074945 0.863792 -0.000001 -0.000000 -0.000000 1.306145 4.743813 -20.435246 0.142634 -1.403905 11.601406 -0.870381 -0.410949 2.989991 0.000001 0.000000 -0.000000 -10.557726 4.437578 -13.328901 28.103179 0.755779 -0.022637 -18.135725 -0.995444 1.824801 0.244645 -0.001417 0.303632 -0.000000 0.000000 0.000001 -4.546167 -11.796352 -14.643598 71.285592 -6.194470 -1.608129 9.351333 -6.207960 27.614861 -10.902009 -0.334307 4.601767 -0.000000 0.000001 0.000001 
-2.895322 33.061821 205.480148 179.285308 16.548761 -176.364787 -6.137557 6.001794 -0.634221 2.933194 0.624652 -2.987730 0.000000 0.000000 0.000000 2.961292 0.663008 -2.952149 -2.203036 0.161606 -2.473805 4.488082 15.734516 3.256485 -0.000000 0.000001 -0.000000 2.971072 -12.063180 -8.721493 0.000000 0.000000 0.000000 4.929897 24.735646 -72.465664 0.000015 -29.942774 0.000031 20.161711 3.356223 -5.337360 -6.637173 8.152884 21.761756 12.058634 24.653546 -7.712781 4.708171 6.866381 -2.837764 -0.000001 -0.000000 -0.000004 -0.758329 -1.833524 -15.571375 0.762844 3.155084 -27.178484 0.347045 2.162425 -18.233272 -0.000001 -0.000000 -0.000002 -0.396377 -1.641713 -10.164234 0.521152 2.632346 -22.393673 0.495812 2.570031 -21.835193 -0.000001 0.000001 0.000001 0.054881 0.986403 -12.067051 0.976200 3.539277 -30.831641 0.007395 0.319702 -2.650125 0.000001 0.000000 0.000001 1.117989 7.796100 2.772364 0.000000 0.000000 0.000000 51.747180 27.364128 69.249239 0.000022 65.598066 -0.000027 48.522234 43.868707 -68.225503 1.698012 4.654623 9.734103 4.643962 -8.637843 -0.222420 -7.857490 19.054887 -1.516893 -0.000000 -0.000003 0.000001 8.123813 12.566360 -38.364633 0.272653 -1.931730 16.066934 0.241787 -1.821181 15.123919 -0.000002 0.000000 -0.000000 3.359320 7.885444 -28.584118 0.564548 -2.749163 23.205055 2.054517 -0.074105 0.865443 -0.000003 0.000001 0.000000 1.344045 4.841595 -20.454231 0.144798 -1.414412 11.689407 -0.779548 -0.405373 2.984608 0.000000 0.000000 0.000000 -9.072778 4.025740 -13.453447 27.395638 0.618323 -0.081061 -18.582523 -1.009584 1.993357 0.211392 -0.001051 0.262549 -0.000000 -0.000001 0.000000 -9.847668 -9.479818 -15.609730 79.243179 -6.386269 -1.946067 11.517960 -4.540320 25.707454 -6.164361 0.000042 0.000005 0.000001 -0.000002 0.000002 
